<?xml version="1.0" encoding="UTF-8" standalone="no"?>
<svg width="28px" height="28px" viewBox="0 0 28 28" version="1.1" xmlns="http://www.w3.org/2000/svg" xmlns:xlink="http://www.w3.org/1999/xlink">
    <!-- Generator: Sketch 41 (35326) - http://www.bohemiancoding.com/sketch -->
    <title>Group</title>
    <desc>Created with Sketch.</desc>
    <defs></defs>
    <g id="Page-1" stroke="none" stroke-width="1" fill="none" fill-rule="evenodd">
        <g id="Group" fill="#FFFFFF">
            <path d="M23,28 L1,28 C0.448,28 0,27.553 0,27 L0,9 C0,8.448 0.448,8 1,8 C1.552,8 2,8.448 2,9 L2,26 L22,26 L22,6 L1,6 C0.448,6 0,5.552 0,5 C0,4.448 0.448,4 1,4 L23,4 C23.553,4 24,4.448 24,5 L24,27 C24,27.553 23.553,28 23,28 Z" id="Shape"></path>
            <path d="M27,20 C26.447,20 26,19.553 26,19 L26,2 L9,2 C8.448,2 8,1.552 8,1 C8,0.448 8.448,0 9,0 L27,0 C27.553,0 28,0.448 28,1 L28,19 C28,19.553 27.553,20 27,20 Z" id="Shape"></path>
        </g>
    </g>
</svg>