<?xml version="1.0" encoding="UTF-8" standalone="no"?>
<svg width="28px" height="28px" viewBox="0 0 28 28" version="1.1" xmlns="http://www.w3.org/2000/svg" xmlns:xlink="http://www.w3.org/1999/xlink">
    <!-- Generator: Sketch 41 (35326) - http://www.bohemiancoding.com/sketch -->
    <title>Shape</title>
    <desc>Created with Sketch.</desc>
    <defs></defs>
    <g id="Page-1" stroke="none" stroke-width="1" fill="none" fill-rule="evenodd">
        <path d="M26.172,1.8303844 C25.208,0.866384397 23.986,0.255384397 22.639,0.0633843973 C20.678,-0.214615603 18.744,0.430384397 17.345,1.8303844 C16.954,2.2213844 16.954,2.8543844 17.345,3.2453844 C17.366,3.2663844 17.393,3.2733844 17.415,3.2913844 C17.433,3.3123844 17.44,3.3393844 17.461,3.3603844 L20.345,6.2443844 L5.449,21.1403844 L3.156,18.8473844 L15.793,6.2103844 C16.184,5.8193844 16.184,5.1873844 15.793,4.7963844 C15.402,4.4053844 14.77,4.4053844 14.379,4.7963844 L1.037,18.1383844 C1.036,18.1393844 1.035,18.1393844 1.034,18.1403844 L0.292,18.8823844 C0.198,18.9763844 0.125,19.0883844 0.075,19.2093844 C0.026,19.3313844 0,19.4603844 0,19.5893844 L0,27.0023844 C0,27.5553844 0.448,28.0023844 1,28.0023844 L8.414,28.0023844 C8.679,28.0023844 8.934,27.8973844 9.121,27.7093844 L26.172,10.6583844 C28.605,8.2243844 28.605,4.2643844 26.172,1.8303844 Z M22.358,2.0443844 C23.272,2.1743844 24.102,2.5893844 24.757,3.2443844 C26.166,4.6543844 26.363,6.8113844 25.371,8.4433844 L22.465,5.5363844 L22.465,5.5363844 L22.465,5.5363844 L19.549,2.6203844 C20.38,2.1113844 21.363,1.9033844 22.358,2.0443844 Z M2,26.0023844 L2,20.5203844 L4.74,23.2603844 C4.741,23.2613844 4.741,23.2623844 4.741,23.2623844 L4.743,23.2633844 L7.482,26.0023844 L2,26.0023844 Z M6.863,22.5543844 L21.758,7.6583844 L24.051,9.9513844 L9.155,24.8473844 L6.863,22.5543844 Z" id="Shape" fill="#FFFFFF"></path>
    </g>
</svg>