<?xml version="1.0" encoding="UTF-8" standalone="no"?>
<svg width="28px" height="28px" viewBox="0 0 28 28" version="1.1" xmlns="http://www.w3.org/2000/svg" xmlns:xlink="http://www.w3.org/1999/xlink">
    <!-- Generator: Sketch 41 (35326) - http://www.bohemiancoding.com/sketch -->
    <title>home-icon</title>
    <desc>Created with Sketch.</desc>
    <defs></defs>
    <g id="Page-1" stroke="none" stroke-width="1" fill="none" fill-rule="evenodd">
        <g id="home-icon" fill="#FFFFFF">
            <g id="Layer_1">
                <path d="M27.707,13.793 L14.707,0.793 C14.316,0.402 13.684,0.402 13.293,0.793 L0.293,13.793 C-0.098,14.184 -0.098,14.816 0.293,15.207 C0.684,15.598 1.316,15.598 1.707,15.207 L14,2.914 L22.014,10.928 C22.013,10.953 22,10.975 22,11 L22,26 L6,26 L6,16 C6,15.447 5.552,15 5,15 C4.448,15 4,15.447 4,16 L4,27 C4,27.553 4.448,28 5,28 L23,28 C23.553,28 24,27.553 24,27 L24,12.914 L26.293,15.207 C26.488,15.402 26.744,15.5 27,15.5 C27.256,15.5 27.512,15.402 27.707,15.207 C28.098,14.816 28.098,14.184 27.707,13.793 Z" id="Shape"></path>
            </g>
        </g>
    </g>
</svg>